<?xml version="1.0" encoding="UTF-8" standalone="no"?>
<svg
   xmlns:dc="http://purl.org/dc/elements/1.1/"
   xmlns:cc="http://creativecommons.org/ns#"
   xmlns:rdf="http://www.w3.org/1999/02/22-rdf-syntax-ns#"
   xmlns:svg="http://www.w3.org/2000/svg"
   xmlns="http://www.w3.org/2000/svg"
   xmlns:sodipodi="http://sodipodi.sourceforge.net/DTD/sodipodi-0.dtd"
   xmlns:inkscape="http://www.inkscape.org/namespaces/inkscape"
   xml:space="preserve"
   width="61.0306mm"
   height="37.3944mm"
   style="shape-rendering:geometricPrecision; text-rendering:geometricPrecision; image-rendering:optimizeQuality; fill-rule:evenodd; clip-rule:evenodd"
   viewBox="0 0 61.0306 37.3944"
   id="svg2"
   version="1.1"
   inkscape:version="0.47 r22583"
   sodipodi:docname="netcontrol.svg"
   inkscape:export-filename="/mnt/sdb1/EDITAL/testes/fluxnetcontrol/new/netcontrol-0.8.5/netcontrol/plugins/core/files/ui/netcontrol.png"
   inkscape:export-xdpi="85.739998"
   inkscape:export-ydpi="85.739998"><metadata
   id="metadata42"><rdf:RDF><cc:Work
       rdf:about=""><dc:format>image/svg+xml</dc:format><dc:type
         rdf:resource="http://purl.org/dc/dcmitype/StillImage" /><dc:title></dc:title></cc:Work></rdf:RDF></metadata><sodipodi:namedview
   pagecolor="#ffffff"
   bordercolor="#666666"
   borderopacity="1"
   objecttolerance="10"
   gridtolerance="10"
   guidetolerance="10"
   inkscape:pageopacity="0"
   inkscape:pageshadow="2"
   inkscape:window-width="766"
   inkscape:window-height="598"
   id="namedview40"
   showgrid="false"
   inkscape:zoom="1.7811341"
   inkscape:cx="108.12508"
   inkscape:cy="58.329524"
   inkscape:window-x="0"
   inkscape:window-y="0"
   inkscape:window-maximized="0"
   inkscape:current-layer="svg2" />
 <defs
   id="defs4"><inkscape:perspective
   sodipodi:type="inkscape:persp3d"
   inkscape:vp_x="0 : 66.249924 : 1"
   inkscape:vp_y="0 : 1000 : 0"
   inkscape:vp_z="216.25017 : 66.249924 : 1"
   inkscape:persp3d-origin="108.12508 : 44.166616 : 1"
   id="perspective44" />
  <style
   type="text/css"
   id="style6">
   
    .fil9 {fill:#2C2927;fill-rule:nonzero}
    .fil1 {fill:#303030;fill-rule:nonzero}
    .fil8 {fill:#48607C;fill-rule:nonzero}
    .fil6 {fill:#B3B3B3;fill-rule:nonzero}
    .fil5 {fill:#D6D6D6;fill-rule:nonzero}
    .fil4 {fill:#E2E2E2;fill-rule:nonzero}
    .fil2 {fill:#F4F4F4;fill-rule:nonzero}
    .fil3 {fill:#F6F6F6;fill-rule:nonzero}
    .fil7 {fill:#FBFBFB;fill-rule:nonzero}
    .fil0 {fill:white;fill-rule:nonzero}
   
  </style>
 
  
  
  
  
  
  
  
  
  
  
  
  
  
  
  
  
  
  
  
 </defs>
 <g
   id="g2886"><path
     class="fil1"
     d="m 35.133044,3.517122 c 1.9051,-0.7584 4.0394,-0.6597 6.0185,-0.2787 1.7568,0.3246 3.242,1.9756 3.1715,3.7994 0.0423,2.5894 0,5.178899 0.0105,7.768198 -2.607,-0.0564 -5.2246,0.1058 -7.8281,-0.0459 -1.852,-0.1058 -3.5207,-1.6052 -3.7218,-3.464299 -0.0811,-1.414499 -0.0565,-2.836199 -0.0352,-4.250899 0.0034,-1.51 0.9735,-2.9739 2.3846,-3.5278 z m -0.3175,2.4624 c -0.6703,1.6511 -0.201,3.5595 -0.2926,5.309299 0.0352,1.220699 1.5521,0.8326 2.367,0.9102 1.8239,-0.18 3.803,0.356199 5.5175,-0.3351 0.2822,-1.710999 0.1199,-3.471499 0.1129,-5.200099 0.0317,-0.9172 -1.1219,-0.8184 -1.7463,-0.8218 -1.9826,0.0846 -3.9899,-0.1587 -5.9585,0.1375 z m 2.8611,6.692198 c 0.2011,0.2752 0.5292,0.3704 0.9843,0.2928 0.1975,0.06 1.3934,-0.0846 0.7584,-0.4021 -0.5644,-0.0954 -1.2241,-0.1836 -1.7427,0.1093 z m 8.7101,-5.594998 c -0.1023,-1.845 1.4041,-3.4784 3.1574,-3.8347 1.8662,-0.5398 3.8452,-0.3105 5.7114,0.1128 1.5699,0.4798 2.7411,2.025 2.7376,3.676 0.0106,1.5064 0.0952,3.0197 -0.067,4.515599 -0.3175,1.763899 -1.9333,3.153699 -3.7183,3.238499 -2.6035,0.1163 -5.2105,0.0034 -7.8176,0.0423 -0.0035,-2.582299 -0.0141,-5.168198 -0.0035,-7.750498 z m 1.8556,-0.2469 c 1.2559,0.656 2.5224,1.3229 3.8594,1.7991 1.3935,-0.4092 2.6529,-1.1713 3.9899,-1.7358 -1.3053,-0.656 -2.5823,-1.3969 -3.9652,-1.8697 -1.337,0.5081 -2.5859,1.2171 -3.8841,1.8064 z m -0.0282,2.1519 c 1.2841,0.6455 2.6035,1.2205 3.8982,1.8415 1.3476,-0.5857 2.6811,-1.196 4.004,-1.8345 -1.33,-1.0513 -2.7128,0.3316 -3.997,0.7619 -1.2382,-0.4762 -2.6105,-1.8132 -3.9052,-0.7689 z m 0,2.1025 c 1.27,0.624399 2.5259,1.294598 3.8594,1.778098 1.4252,-0.3881 2.7093,-1.164199 4.0499,-1.774498 -1.3512,-1.002 -2.7199,0.331499 -4.0111,0.779499 -1.2206,-0.5009 -2.6035,-1.777899 -3.8982,-0.783099 z m -13.2045,-4.7625 c 2.3566,-0.0177 4.7167,-0.074 7.0732,0.0282 0.0529,1.778 0.0494,3.5595 0.0035,5.337599 -2.3565,0.0916 -4.7166,0.0529 -7.0767,0.0211 -0.081,-1.7955992 -0.0846,-3.5947992 0,-5.3868992 z m 0.5045,0.4939 c -0.074,1.4676 -0.074,2.935 -0.0071,4.399099 2.0179,0.0176 4.0358,0.0106 6.0537,0 0.0353,-1.407499 0.0988,-2.818699 -0.0035,-4.219099 -1.9227,-0.4304 -4.0464,-0.0672 -6.0431,-0.18 z m 10.8691,10.022498 c 2.5964,0.0034 5.1999,-0.0247 7.7964,0.0387 1.9226,0.0529 3.6583,1.6652 3.7923,3.5983 0.0741,1.4077 0.0529,2.8222 0.0177,4.2333 -0.0494,1.3265 -0.8185,2.6072 -1.9862,3.2422 -1.0724,0.656 -2.3742,0.6243 -3.5877,0.6526 -1.3582,-0.0142 -2.8081,0.0599 -4.0358,-0.6139 -1.1606,-0.6631 -2.0108,-1.9331 -1.9826,-3.2985 -0.0494,-2.614 0.0035,-5.2352 -0.0141,-7.8527 z m 2.6458,1.7073 c 0.4198,0.5081 0.8608,1.002 1.3018,1.4923 -0.247,0.3351 -0.4975,0.6703 -0.7479,1.0018 -0.5856,-0.455 -1.1466,-0.9348 -1.7286,-1.3898 0.0882,0.9031 0.0882,2.0637 1.0407,2.5259 1.337,0.889 3.3831,-0.4446 2.9703,-2.0497 -0.1516,-1.3546 -1.6827,-1.7675 -2.8363,-1.5805 z m 5.334,0.7126 c -1.2206,0.9138 -2.2013,2.092 -3.2843,3.1574 0.5891,0.4022 1.0795,0.9138 1.4816,1.5029 1.143,-1.009 2.286,-2.0321 3.2703,-3.2033 0.6773,-0.7972 -0.6633,-2.173 -1.4676,-1.457 z m -3.0727,4.0182 c -1.1536,0.695 -2.2648,1.5663 -2.6493,2.9245 1.397,-0.2822 2.7481,-1.5099 3.0162,-2.8505 -0.0917,-0.0176 -0.2752,-0.0563 -0.3669,-0.074 z m 2.6317,-0.201 c -0.4656,0.462 -0.9278,0.9242 -1.3934,1.3829 0.6279,0.6243 1.1289,1.478 2.0073,1.7638 0.7302,0.2187 1.4111,-0.4798 1.21,-1.2064 -0.4163,-0.801 -1.1783,-1.3336 -1.8239,-1.9403 z m -1.8873,-0.7621 c 0.8255,-0.9595 1.7639,-1.8238 2.7587,-2.6069 -0.2258,0.3209 -0.4445,0.642 -0.6632,0.9701 l -0.1658,0.3175 c -0.0282,0.0423 -0.0917,0.1269 -0.1235,0.1692 -0.0141,0.0212 -0.0459,0.0635 -0.06,0.0848 l 0.06,-0.0848 c 0.0318,-0.0423 0.0953,-0.1269 0.1235,-0.1692 0.2681,-0.0601 0.8008,-0.1836 1.0654,-0.2469 -0.5504,0.6207 -1.1289,1.2134 -1.6651,1.8449 -0.1659,-0.2963 -0.3317,-0.5926 -0.5116,-0.882 -0.2046,0.1517 -0.6138,0.4516 -0.8184,0.6033 z m 2.9951,-1.5662 c 0.1658,-0.2223 0.1658,-0.2223 0,0 m -0.4375,4.0463 c 0.6315,-0.2187 0.8714,0.8254 0.2187,0.9313 -0.642,0.2363 -0.8255,-0.8044 -0.2187,-0.9313 z"
     id="path12"
     style="fill:#303030;fill-rule:nonzero" /><path
     class="fil2"
     d="m 48.242344,6.829822 c 1.2982,-0.5893 2.5471,-1.2983 3.8841,-1.8064 1.3829,0.4728 2.6599,1.2137 3.9652,1.8697 -1.337,0.5645 -2.5964,1.3266 -3.9899,1.7358 -1.337,-0.4762 -2.6035,-1.1431 -3.8594,-1.7991 z m -13.4268,-0.8503 c 1.9686,-0.2962 3.9759,-0.0529 5.9585,-0.1375 0.6244,0.0034 1.778,-0.0954 1.7463,0.8218 0.007,1.7286 0.1693,3.4891 -0.1129,5.200099 -1.7145,0.691299 -3.6936,0.1551 -5.5175,0.3351 -0.8149,-0.0776 -2.3318,0.310499 -2.367,-0.9102 0.0916,-1.749799 -0.3777,-3.658199 0.2926,-5.309299 z m 0.1941,0.3422 c -0.0846,1.7921 -0.081,3.5913 0,5.386899 2.3601,0.0318 4.7202,0.0705 7.0767,-0.0211 0.0459,-1.7780988 0.0494,-3.5595988 -0.0035,-5.3375988 -2.3565,-0.1022 -4.7166,-0.0459 -7.0732,-0.0282 z"
     id="path14"
     style="fill:#f4f4f4;fill-rule:nonzero" /><path
     class="fil3"
     d="m 35.514144,6.815622 c 1.9967,0.1128 4.1204,-0.2504 6.0431,0.18 0.1023,1.4004 0.0388,2.8116 0.0035,4.219099 -2.0179,0.0106 -4.0358,0.0176 -6.0537,0 -0.0669,-1.464099 -0.0669,-2.931499 0.0071,-4.399099 z"
     id="path16"
     style="fill:#f6f6f6;fill-rule:nonzero" /><path
     class="fil4"
     d="m 48.214144,8.981722 c 1.2947,-1.0443 2.667,0.2927 3.9052,0.7689 1.2842,-0.4303 2.667,-1.8132 3.997,-0.7619 -1.3229,0.6385 -2.6564,1.2488 -4.004,1.8345 -1.2947,-0.621 -2.6141,-1.196 -3.8982,-1.8415 z"
     id="path18"
     style="fill:#e2e2e2;fill-rule:nonzero" /><path
     class="fil5"
     d="m 48.214144,11.084222 c 1.2947,-0.9948 2.6776,0.282199 3.8982,0.783099 1.2912,-0.448 2.6599,-1.781499 4.0111,-0.779499 -1.3406,0.610299 -2.6247,1.386398 -4.0499,1.774498 -1.3335,-0.4835 -2.5894,-1.153699 -3.8594,-1.778098 z"
     id="path20"
     style="fill:#d6d6d6;fill-rule:nonzero" /><path
     class="fil6"
     d="m 37.676644,12.67172 c 0.5186,-0.2929 1.1783,-0.2047 1.7427,-0.1093 0.635,0.3175 -0.5609,0.4621 -0.7584,0.4021 -0.4551,0.0776 -0.7832,-0.0176 -0.9843,-0.2928 z"
     id="path22"
     style="fill:#b3b3b3;fill-rule:nonzero" /><path
     class="fil7"
     d="m 49.029044,18.54542 c 1.1536,-0.187 2.6847,0.2259 2.8363,1.5805 0.4128,1.6051 -1.6333,2.9387 -2.9703,2.0497 -0.9525,-0.4622 -0.9525,-1.6228 -1.0407,-2.5259 0.582,0.455 1.143,0.9348 1.7286,1.3898 0.2504,-0.3315 0.5009,-0.6667 0.7479,-1.0018 -0.441,-0.4903 -0.882,-0.9842 -1.3018,-1.4923 z m 5.334,0.7126 c 0.8043,-0.716 2.1449,0.6598 1.4676,1.457 -0.9843,1.1712 -2.1273,2.1943 -3.2703,3.2033 -0.4021,-0.5891 -0.8925,-1.1007 -1.4816,-1.5029 1.083,-1.0654 2.0637,-2.2436 3.2843,-3.1574 z m -2.3283,3.0551 c 0.2046,-0.1517 0.6138,-0.4516 0.8184,-0.6033 0.1799,0.2894 0.3457,0.5857 0.5116,0.882 0.5362,-0.6315 1.1147,-1.2242 1.6651,-1.8449 -0.2646,0.0633 -0.7973,0.1868 -1.0654,0.2469 l 0.1658,-0.3175 c 0.2187,-0.3281 0.4374,-0.6492 0.6632,-0.9701 -0.9948,0.7831 -1.9332,1.6474 -2.7587,2.6069 z m 2.9951,-1.5662 c 0.1658,-0.2223 0.1658,-0.2223 0,0 z m -1.1889,0.4161 c 0.0318,-0.0423 0.0953,-0.1269 0.1235,-0.1692 -0.0282,0.0423 -0.0917,0.1269 -0.1235,0.1692 z m -2.5506,2.1132 c 0.0917,0.0177 0.2752,0.0564 0.3669,0.074 -0.2681,1.3406 -1.6192,2.5683 -3.0162,2.8505 0.3845,-1.3582 1.4957,-2.2295 2.6493,-2.9245 z m 2.6317,-0.201 c 0.6456,0.6067 1.4076,1.1393 1.8239,1.9403 0.2011,0.7266 -0.4798,1.4251 -1.21,1.2064 -0.8784,-0.2858 -1.3794,-1.1395 -2.0073,-1.7638 0.4656,-0.4587 0.9278,-0.9209 1.3934,-1.3829 z m 0.6703,1.718 c -0.6068,0.1269 -0.4233,1.1676 0.2187,0.9313 0.6527,-0.1059 0.4128,-1.15 -0.2187,-0.9313 z"
     id="path24"
     style="fill:#fbfbfb;fill-rule:nonzero" /><polygon
     transform="translate(0.56444442,2.822222)"
     class="fil8"
     points="5.6484,24.518 2.5157,24.518 2.5157,14.3016 7.3699,14.3016 13.2825,21.724 13.2825,14.3016 16.4151,14.3016 16.4151,24.518 11.5609,24.518 5.6484,17.0956 "
     id="polygon26"
     style="fill:#48607c;fill-rule:nonzero" /><path
     id="1"
     class="fil8"
     d="m 21.596744,23.41732 0,0.4375 c 0.0376,0.3198 0.1317,0.5456 0.2822,0.6773 0.1976,0.1881 0.4422,0.2963 0.7338,0.3245 l 8.9465,0 c 0,0.2917 -0.033,0.541 -0.0988,0.7479 -0.1129,0.3857 -0.3716,0.7903 -0.7761,1.2136 -0.4422,0.4233 -1.176,0.6397 -2.2014,0.6491 l -6.6322,-0.0141 c -1.1477,-0.0376 -2.0038,-0.301 -2.5682,-0.7902 -0.5833,-0.5174 -0.8749,-1.223 -0.8749,-2.1167 l 0,-4.5438 c 0,-0.8843 0.2963,-1.5898 0.889,-2.1166 0.5927,-0.508 1.4393,-0.7667 2.54,-0.7761 l 6.7028,0 c 0.7714,0 1.4816,0.2822 2.1308,0.8466 0.3198,0.2728 0.5691,0.6538 0.7478,1.143 0.0941,0.3199 0.1412,0.5221 0.1412,0.6068 l -8.9606,0 c -0.301,0 -0.5456,0.0988 -0.7338,0.2963 -0.1693,0.1976 -0.2587,0.4516 -0.2681,0.762 l 0,0.4657 8.6078,0 0,2.1872 -8.6078,0 z"
     style="fill:#48607c;fill-rule:nonzero" /><polygon
     transform="translate(0.56444442,2.822222)"
     id="12"
     class="fil8"
     points="32.0249,14.3016 43.9629,14.3016 43.9629,17.0109 39.5602,17.0109 39.5602,24.518 36.4276,24.518 36.4276,17.0109 32.0249,17.0109 "
     style="fill:#48607c;fill-rule:nonzero" /><path
     class="fil9"
     d="m 6.5534444,32.65692 0.6022,0.1524 c -0.1259,0.4932 -0.3534,0.87 -0.6805,1.1303 -0.3281,0.2593 -0.7281,0.3885 -1.2022,0.3885 -0.49,0 -0.888,-0.0995 -1.1949,-0.2985 -0.3069,-0.2 -0.5408,-0.4889 -0.7006,-0.8668 -0.1598,-0.3789 -0.2403,-0.7853 -0.2403,-1.2192 0,-0.473 0.09,-0.8858 0.271,-1.2382 0.181,-0.3524 0.4381,-0.6202 0.7726,-0.8033 0.3333,-0.1831 0.7006,-0.2741 1.1017,-0.2741 0.4551,0 0.8371,0.1154 1.1472,0.3471 0.3101,0.2318 0.526,0.5567 0.6477,0.9769 l -0.5916,0.1397 c -0.1058,-0.3313 -0.2582,-0.5715 -0.4593,-0.7229 -0.2,-0.1513 -0.4519,-0.2265 -0.7567,-0.2265 -0.3493,0 -0.6403,0.0837 -0.8753,0.2509 -0.2349,0.1682 -0.4,0.3926 -0.4942,0.6752 -0.0952,0.2815 -0.1429,0.5725 -0.1429,0.8721 0,0.3873 0.0561,0.7239 0.1683,1.0128 0.1132,0.2878 0.2879,0.5037 0.526,0.6466 0.2381,0.1429 0.4953,0.2138 0.7726,0.2138 0.3365,0 0.6212,-0.0974 0.8551,-0.291 0.2339,-0.1948 0.3916,-0.4837 0.4741,-0.8658 z"
     id="path30"
     style="fill:#2c2927;fill-rule:nonzero" /><path
     id="path32"
     class="fil9"
     d="m 9.4776444,32.03682 c 0,-0.7546 0.2022,-1.3452 0.6074996,-1.7717 0.4053,-0.4265 0.9282,-0.6403 1.5695,-0.6403 0.4191,0 0.798,0.1006 1.1345,0.3006 0.3366,0.2011 0.5938,0.4805 0.7705,0.8392 0.1768,0.3578 0.2646,0.7652 0.2646,1.2192 0,0.4615 -0.0921,0.8742 -0.2783,1.2372 -0.1863,0.3641 -0.4498,0.6393 -0.7906,0.8266 -0.3419,0.1873 -0.7091,0.2805 -1.1039,0.2805 -0.4286,0 -0.8106,-0.1027 -1.1472,-0.3101 -0.3376,-0.2064 -0.5926996,-0.489 -0.7661996,-0.8467 -0.1736,-0.3567 -0.2604,-0.7355 -0.2604,-1.1345 z m 0.6201996,0.0095 c 0,0.5482 0.1471,0.9789 0.4413,1.2943 0.2953,0.3154 0.6647,0.4731 1.1092,0.4731 0.4529,0 0.8255,-0.1587 1.1176,-0.4773 0.2921,-0.3186 0.4392,-0.7705 0.4392,-1.3557 0,-0.3694 -0.0635,-0.6922 -0.1884,-0.9684 -0.1249,-0.2762 -0.308,-0.49 -0.5482,-0.6424 -0.2413,-0.1514 -0.5112,-0.2276 -0.8107,-0.2276 -0.4265,0 -0.7927,0.1461 -1.0996,0.4393 -0.3069,0.2921 -0.4604,0.781 -0.4604,1.4647 z"
     style="fill:#2c2927;fill-rule:nonzero" /><polygon
     transform="translate(0.56444442,2.822222)"
     id="polygon34"
     class="fil9"
     points="16.3702,27.8567 16.3702,31.4286 15.7934,31.4286 15.7934,26.8831 16.4104,26.8831 18.798,30.4518 18.798,26.8831 19.3748,26.8831 19.3748,31.4286 18.7578,31.4286 "
     style="fill:#2c2927;fill-rule:nonzero" /><polygon
     transform="translate(0.56444442,2.822222)"
     id="123"
     class="fil9"
     points="23.3065,31.4286 23.3065,27.4196 21.8089,27.4196 21.8089,26.8831 25.4115,26.8831 25.4115,27.4196 23.9076,27.4196 23.9076,31.4286 "
     style="fill:#2c2927;fill-rule:nonzero" /><path
     id="1234"
     class="fil9"
     d="m 28.366644,34.25082 0,-4.5455 2.0151,0 c 0.4053,0 0.7133,0.0412 0.9239,0.1227 0.2106,0.0815 0.3789,0.2254 0.5059,0.4318 0.126,0.2075 0.1884,0.4361 0.1884,0.6858 0,0.3228 -0.1037,0.5937 -0.3133,0.8149 -0.2085,0.2212 -0.5313,0.362 -0.9673,0.4223 0.1598,0.0762 0.2805,0.1514 0.363,0.2265 0.1757,0.1609 0.3419,0.363 0.4996,0.6043 l 0.7905,1.2372 -0.7567,0 -0.6011,-0.9462 c -0.1757,-0.2719 -0.3207,-0.4815 -0.435,-0.6254 -0.1132,-0.145 -0.2148,-0.2466 -0.3048,-0.3038 -0.0899,-0.0582 -0.181,-0.0984 -0.2741,-0.1217 -0.0688,-0.0137 -0.1799,-0.0211 -0.3355,-0.0211 l -0.6974,0 0,2.0182 -0.6012,0 z m 0.6012,-2.5389 1.2933,0 c 0.2741,0 0.49,-0.0286 0.6445,-0.0858 0.1556,-0.0571 0.273,-0.1481 0.3535,-0.273 0.0804,-0.1249 0.1206,-0.2604 0.1206,-0.4075 0,-0.2148 -0.0772,-0.3916 -0.2339,-0.5302 -0.1556,-0.1386 -0.4021,-0.2074 -0.7398,-0.2074 l -1.4382,0 0,1.5039 z"
     style="fill:#2c2927;fill-rule:nonzero" /><path
     id="12345"
     class="fil9"
     d="m 34.524044,32.03682 c 0,-0.7546 0.2022,-1.3452 0.6075,-1.7717 0.4053,-0.4265 0.9282,-0.6403 1.5695,-0.6403 0.4191,0 0.798,0.1006 1.1345,0.3006 0.3366,0.2011 0.5938,0.4805 0.7705,0.8392 0.1768,0.3578 0.2646,0.7652 0.2646,1.2192 0,0.4615 -0.0921,0.8742 -0.2783,1.2372 -0.1863,0.3641 -0.4498,0.6393 -0.7906,0.8266 -0.3419,0.1873 -0.7091,0.2805 -1.1039,0.2805 -0.4286,0 -0.8106,-0.1027 -1.1472,-0.3101 -0.3376,-0.2064 -0.5927,-0.489 -0.7662,-0.8467 -0.1736,-0.3567 -0.2604,-0.7355 -0.2604,-1.1345 z m 0.6202,0.0095 c 0,0.5482 0.1471,0.9789 0.4413,1.2943 0.2953,0.3154 0.6647,0.4731 1.1092,0.4731 0.4529,0 0.8255,-0.1587 1.1176,-0.4773 0.2921,-0.3186 0.4392,-0.7705 0.4392,-1.3557 0,-0.3694 -0.0635,-0.6922 -0.1884,-0.9684 -0.1249,-0.2762 -0.308,-0.49 -0.5482,-0.6424 -0.2413,-0.1514 -0.5112,-0.2276 -0.8107,-0.2276 -0.4265,0 -0.7927,0.1461 -1.0996,0.4393 -0.3069,0.2921 -0.4604,0.781 -0.4604,1.4647 z"
     style="fill:#2c2927;fill-rule:nonzero" /><polygon
     transform="translate(0.56444442,2.822222)"
     id="123456"
     class="fil9"
     points="41.4229,26.8831 41.4229,30.892 43.6613,30.892 43.6613,31.4286 40.8207,31.4286 40.8207,26.8831 "
     style="fill:#2c2927;fill-rule:nonzero" /></g>
</svg>